<svg width="191" height="77" viewBox="0 0 191 77" fill="none" xmlns="http://www.w3.org/2000/svg">
<path d="M149.873 25.8018H160.057L166.607 44.6817H166.783L172.624 25.8018H182.89C182.862 25.8891 176.084 46.9772 169.734 59.6085C169.391 60.2891 169.244 60.6959 168.848 61.3468C168.032 62.6877 167.275 63.5891 166.252 64.4151C165.269 65.2804 164.089 65.9298 162.712 66.3624C161.375 66.795 159.782 67.0108 157.934 67.0108C157.032 67.0108 149.369 67.0264 149.32 67.0265V58.7511H156.813C158.307 58.751 159.015 58.5209 160.057 57.6886C160.305 57.4905 160.441 57.3716 160.648 57.131C161.711 55.8928 161.593 54.7325 161.591 54.712L149.873 27.1056V55.1837H140.079V10.5802H149.873V25.8018Z" fill="#FF7B02"/>
<path d="M120.156 37.7198H120.333L129.714 25.8018H141.455L130.127 39.0763L141.927 55.1837H129.95L120.333 41.0831H120.156V55.1837H100.789V39.1358C100.789 38.3098 100.71 37.5228 100.553 36.7755C100.435 36.0283 100.218 35.3798 99.9036 34.8292C99.5889 34.2393 99.137 33.7864 98.5471 33.4718C97.9965 33.1178 97.2883 32.9406 96.4231 32.9405C95.5579 32.9405 94.7909 33.1179 94.1223 33.4718C93.493 33.7864 92.9612 34.2392 92.5286 34.8292C92.0961 35.4191 91.7616 36.1072 91.5256 36.8936C91.329 37.641 91.2307 38.428 91.2307 39.254V55.1837H81.4963V39.4425C79.1792 48.4933 70.9695 55.1844 61.1965 55.1847C53.3027 55.1847 46.4287 50.8192 42.8557 44.3712C42.7097 46.0765 42.2775 47.5567 41.5559 48.8116C40.6513 50.3455 39.4518 51.5844 37.9573 52.5284C36.4626 53.4724 34.7508 54.1612 32.8235 54.5938C30.9356 54.9871 28.9885 55.1837 26.9827 55.1837H10.345V13.4122H26.9827C28.5952 13.4122 30.2475 13.5885 31.9387 13.9425C33.6301 14.2571 35.1646 14.8274 36.5413 15.6534C37.9178 16.44 39.0383 17.522 39.9036 18.8985C40.7689 20.2752 41.2024 22.0256 41.2024 24.1495C41.2024 26.4702 40.5724 28.3977 39.3137 29.9317C38.0551 31.4263 36.4029 32.5082 34.3577 33.1768V33.295C35.5377 33.4917 36.6397 33.8654 37.6624 34.4161C38.7131 34.9221 39.6091 35.5826 40.3518 36.3966C40.2787 35.6845 40.2415 34.9619 40.2415 34.2306C40.2415 22.6578 49.6238 13.2755 61.1965 13.2755C70.9691 13.2757 79.1788 19.9664 81.4963 29.0167V25.8018H90.8772V29.8731H90.9944C91.3483 29.2439 91.8012 28.634 92.3518 28.044C92.9418 27.4147 93.6103 26.883 94.3577 26.4503C95.1443 26.0176 95.9902 25.6641 96.8948 25.3888C97.7993 25.1135 98.7629 24.9757 99.7854 24.9757C101.752 24.9757 103.424 25.3302 104.801 26.0382C106.177 26.7461 107.279 27.6701 108.105 28.8106C108.97 29.9119 109.58 31.1903 109.934 32.6456C110.165 33.4997 110.326 34.354 110.421 35.2081V10.5802H120.156V37.7198ZM20.0803 47.0421H25.7444C26.5309 47.0421 27.3375 46.9823 28.1633 46.8643C29.0285 46.707 29.7955 46.4517 30.4641 46.0977C31.172 45.7438 31.7424 45.2523 32.175 44.6231C32.6077 43.9545 32.8234 43.1086 32.8235 42.086C32.8235 40.3554 32.1752 39.1551 30.8772 38.4864C29.5792 37.8178 27.8481 37.4835 25.6848 37.4835H20.0803V47.0421ZM73.3313 34.3028C64.0673 34.0583 58.8964 34.101 49.6321 34.3028C49.6323 40.8472 54.9374 46.1532 61.4817 46.1534C68.0262 46.1534 73.3311 40.8473 73.3313 34.3028ZM20.0803 30.0499H25.5081C27.396 30.0499 28.8516 29.6761 29.8743 28.9288C30.9361 28.1422 31.467 27.0014 31.467 25.5069C31.467 24.0909 30.916 23.0679 29.8147 22.4386C28.7528 21.7701 27.16 21.4357 25.0364 21.4356H20.0803V30.0499ZM55.1624 24.7569C53.1592 24.7572 51.4729 26.1086 50.9622 27.9493H59.3645C58.8536 26.1085 57.1657 24.757 55.1624 24.7569ZM67.8733 24.7569C65.8698 24.7569 64.1828 26.1084 63.6721 27.9493H72.0735C71.5628 26.1086 69.8765 24.7571 67.8733 24.7569Z" fill="#FE0405"/>
</svg>
