<svg width="392" height="71" viewBox="0 0 392 71" fill="none" xmlns="http://www.w3.org/2000/svg">
<path d="M153.649 7.74837C156.215 8.09335 158.55 8.73767 161.494 9.57312C161.496 9.57334 161.497 9.57358 161.499 9.57381C161.919 9.69314 162.353 9.81738 162.801 9.94409C165.466 10.6978 168.726 11.5982 173.148 12.5984L167.173 12.3035C168.765 12.1237 170.498 11.9079 172.395 11.6449C180.421 10.5238 186.936 10.8315 190.984 11.6155C191.739 11.7606 192.505 11.7798 194.409 11.5893C195.657 11.4645 197.34 11.256 199.77 10.9594C201.062 10.8016 202.565 10.6181 204.327 10.4106C210.158 9.72497 219.228 8.0829 227.584 6.55081C232.656 5.62223 237.466 4.73718 241.13 4.1595C246.489 3.31437 251.691 2.75902 257.349 2.18085C262.531 1.6504 268.096 1.10152 274.51 0.259899C279.431 -0.388907 284.365 0.274439 289.407 1.17926C290.049 1.29408 290.694 1.41181 291.339 1.53168C292.78 1.79926 294.232 2.07429 295.701 2.3319L298.316 1.81951L302.597 3.44681C304.798 5.41779 307.091 7.36719 309.624 9.14548C309.764 9.2433 309.904 9.34058 310.045 9.4373C317.16 14.3314 323.668 16.4689 330.918 18.7405C333.752 19.6319 336.698 20.5489 339.826 21.6867C344.772 23.486 351.667 26.5321 358.547 29.6841C359.133 29.9525 359.721 30.2196 360.305 30.4886C360.308 30.49 360.311 30.4913 360.314 30.4926C363.129 31.7874 365.914 33.0825 368.545 34.2938L353.833 37.0654C356.279 34.4521 358.529 32.0238 360.348 29.9489C360.652 29.6025 360.943 29.2676 361.223 28.9434C365.836 23.755 367.98 21.9553 369.679 20.338C370.379 19.7133 371.053 19.16 371.949 18.5876C375.154 16.5063 381.243 14.5523 388.404 13.512C388.432 13.5079 388.459 13.5037 388.486 13.4997C389.696 13.3474 390.916 13.4554 391.177 13.7092C391.438 13.9637 390.949 14.5594 390.093 15.0482C387.283 16.5342 384.63 18.0681 382.38 19.56C383.202 20.5288 383.393 21.6877 382.749 22.2481C381.068 23.5834 377.079 28.7765 372.095 38.1007C372.855 37.8595 373.528 37.6916 374.134 37.5611C374.846 37.4079 375.416 37.3139 375.903 37.2301C376.918 37.0546 377.583 36.9288 378.438 36.3956C380.161 34.9165 382.45 32.1941 384.681 29.1614C385.26 28.4095 386.774 28.7969 388.078 30.0416C389.382 31.2863 390.154 33.0808 389.766 34.0134C389.758 34.0315 389.751 34.0497 389.743 34.0679C388.176 37.6828 386.183 40.8437 384.525 42.5231C384.106 42.9527 383.712 43.2921 383.4 43.5316C383.152 43.7233 382.83 43.9522 382.591 44.0219C382.559 44.0311 382.497 44.0472 382.413 44.0574C382.411 44.0572 382.41 44.0571 382.408 44.0569C382.361 44.0629 382.125 44.0941 381.737 43.9991C381.659 43.9799 381.486 43.9352 381.23 43.832C381.199 43.838 381.167 43.844 381.136 43.85C380.698 43.9346 380.247 44.0175 379.778 44.1251C379.211 44.2552 378.56 44.4271 377.789 44.6779C376.07 45.2366 373.792 46.2255 370.598 48.1079C369.675 48.6519 368.671 49.3309 367.592 50.1342L364.271 53.4058L360.484 51.4732C356.503 48.6909 350.678 45.5054 343.612 42.0926C344.147 42.5478 344.684 42.9993 345.224 43.4447C346.582 44.5653 347.962 45.6588 349.349 46.7379C349.881 47.1509 350.406 47.5576 350.943 47.9678C351.806 48.6291 352.674 49.2884 353.543 49.9431C354.131 50.3857 354.721 50.8267 355.31 51.2681C355.311 51.2688 355.312 51.2695 355.314 51.2702C356.131 51.8829 356.95 52.4976 357.774 53.1206C358.06 53.3427 358.344 53.5602 358.627 53.775C358.818 53.9205 359.008 54.0654 359.199 54.2115L364.839 57.0899L369.785 52.2173C370.754 51.5596 371.749 50.9119 372.971 50.2851C373.167 50.2095 373.393 50.1401 373.57 50.0951C373.758 50.0454 373.943 50.0015 374.123 49.9651C374.282 49.933 374.438 49.9064 374.585 49.8791C374.605 49.8754 374.625 49.8716 374.645 49.8679C374.81 49.8373 374.965 49.806 375.114 49.7749C375.262 49.7439 375.405 49.7139 375.539 49.6778C375.54 49.677 375.54 49.6763 375.541 49.6755C375.68 49.6368 375.785 49.6071 375.921 49.556C376.092 49.4918 376.234 49.4317 376.396 49.3497C376.553 49.2705 376.711 49.1819 376.865 49.0874C377.018 48.9929 377.17 48.8921 377.321 48.7869C377.472 48.6815 377.623 48.5723 377.773 48.4594C377.922 48.3466 378.071 48.2293 378.22 48.1115C378.369 47.9935 378.52 47.8741 378.67 47.7532C379.016 47.4752 379.666 47.5103 380.488 47.8643C381.11 48.1321 381.79 48.5633 382.445 49.1006C382.656 49.274 382.865 49.4583 383.068 49.6518C383.261 49.8358 383.445 50.0249 383.62 50.2167C384.199 50.8527 384.669 51.5195 384.965 52.1317C385.349 52.9286 385.405 53.566 385.131 53.9131C385.057 54.0075 384.983 54.1033 384.907 54.1982C384.862 54.2546 384.815 54.3102 384.77 54.3666C384.648 54.5182 384.525 54.6725 384.398 54.8236C384.27 54.9745 384.138 55.1236 384.003 55.2722C383.866 55.4211 383.726 55.5696 383.577 55.714C383.428 55.8582 383.27 56.0001 383.102 56.1365C382.938 56.2701 382.741 56.4122 382.553 56.5285C382.417 56.6146 382.235 56.7083 382.081 56.7834C381.92 56.8616 381.756 56.933 381.594 56.9982C381.431 57.0635 381.269 57.122 381.115 57.1786C381.098 57.1849 381.082 57.1912 381.066 57.1975C380.93 57.2475 380.798 57.2953 380.676 57.3429C380.539 57.3961 380.414 57.4505 380.298 57.5055C380.171 57.5654 380.101 57.6091 380.016 57.664C379.297 58.254 378.532 59.0139 377.769 59.801L366.907 70.5017L354.522 64.1805C354.123 63.9888 353.721 63.799 353.324 63.6112C353.151 63.5292 352.979 63.4465 352.809 63.3653C351.901 62.9385 350.995 62.5155 350.089 62.0909C349.431 61.7824 348.773 61.4731 348.115 61.1599C347.147 60.6992 346.179 60.2302 345.216 59.7551C344.618 59.4595 344.032 59.1661 343.438 58.8648C341.888 58.0786 340.343 57.2669 338.814 56.4148C337.288 55.5637 335.77 54.6693 334.278 53.7163C332.792 52.7668 331.279 51.7162 329.869 50.5913C328.834 49.7604 327.85 48.7454 326.958 47.7675C326.478 47.2414 326.012 46.7193 325.554 46.2025C325.553 46.2003 325.551 46.1981 325.55 46.1958C325.148 45.7422 324.751 45.2946 324.352 44.8591C323.499 43.9237 322.642 43.0441 321.758 42.2217C320.876 41.4 319.972 40.6374 319.033 39.9276C318.102 39.2237 317.129 38.5626 316.142 37.9575C315.151 37.3491 314.156 36.7988 313.093 36.257C311.693 35.5485 310.276 34.9027 308.817 34.2495C307.367 33.6033 305.897 32.9706 304.422 32.3373C303.907 32.1161 303.392 31.8919 302.874 31.6705C302.872 31.6695 302.87 31.6685 302.868 31.6676C301.911 31.258 300.952 30.8478 299.993 30.435C299.894 30.3923 299.794 30.3496 299.695 30.3068C298.313 29.7113 296.93 29.1083 295.55 28.4877C294.262 27.9084 292.973 27.3133 291.69 26.6907L298.727 27.8284C298.516 27.8506 298.305 27.8723 298.094 27.8933C296.462 28.0539 294.781 28.1844 293.08 28.2101C291.563 28.2363 290.03 28.2306 288.531 28.2248C288.136 28.2233 287.74 28.222 287.344 28.2208C285.467 28.2173 283.653 28.2447 281.871 28.3769C280.091 28.5061 278.324 28.7358 276.55 29.0449C274.781 29.353 272.998 29.7363 271.206 30.1628C269.406 30.5913 267.634 31.0551 265.828 31.5462C264.036 32.0347 262.238 32.5436 260.419 33.0688C259.408 33.36 258.328 33.6375 257.306 33.8803C256.274 34.1255 255.246 34.3498 254.23 34.5618C253.818 34.6479 253.407 34.731 252.999 34.8146C252.405 34.9365 251.816 35.0557 251.236 35.1774C250.258 35.3828 249.305 35.5944 248.382 35.8268C247.46 36.059 246.568 36.3142 245.713 36.607C244.827 36.9108 244.103 37.2056 243.242 37.6116C241.126 38.4254 239.789 38.7155 238.304 39.0417C238.012 39.1057 237.713 39.173 237.402 39.2434C235.619 39.6147 233.83 39.9179 232.059 40.1722C230.27 40.4278 228.504 40.6338 226.711 40.8015C224.935 40.9679 223.141 41.0934 221.35 41.1845C219.563 41.2754 217.774 41.3312 215.976 41.3535C214.18 41.376 212.342 41.3643 210.575 41.3236C209.553 41.3004 208.465 41.2527 207.454 41.1983C206.724 41.1593 206.004 41.1158 205.298 41.0736C205.01 41.0563 204.723 41.0392 204.44 41.0228C203.462 40.9663 202.512 40.9181 201.597 40.8952C200.682 40.872 199.799 40.8729 198.94 40.9104C198.079 40.9477 197.241 41.0216 196.408 41.1329C195.544 41.2501 194.83 41.3763 193.921 41.5784C193.33 41.7112 192.751 41.8434 192.174 41.9751C191.309 42.1721 190.451 42.3703 189.588 42.5729C188.725 42.7752 187.873 42.9787 187.018 43.1875C186.743 43.2546 186.453 43.3254 186.177 43.3938C185.325 43.6053 184.484 43.8193 183.644 44.0409C182.806 44.2622 181.977 44.4889 181.152 44.7246C180.324 44.9612 179.51 45.203 178.682 45.4597C177.274 45.8971 175.906 46.1355 174.703 46.3103C173.495 46.4832 172.361 46.6033 171.256 46.7186L165.695 46.4441C165.687 46.4421 165.678 46.4402 165.67 46.4382C165.466 46.3903 165.262 46.3423 165.058 46.2943C164.181 46.0863 163.318 45.8796 162.466 45.6847C161.416 45.4441 160.383 45.2199 159.343 45.0073C158.313 44.7962 157.27 44.5956 156.239 44.415C155.198 44.2329 154.199 44.0718 153.12 43.9147C152.053 43.758 150.96 43.6397 149.764 43.505C148.578 43.372 147.335 43.2247 146.083 43.0435C144.833 42.8633 143.569 42.6497 142.322 42.4035C141.073 42.1573 139.826 41.878 138.603 41.5756C137.373 41.2717 136.156 40.9423 134.95 40.5946C133.747 40.2478 132.509 39.8684 131.354 39.4962C129.483 38.8935 127.624 38.2809 125.762 37.6638C123.91 37.0496 122.054 36.4291 120.202 35.8084C118.353 35.1887 116.503 34.5674 114.655 33.9461C112.807 33.3247 110.959 32.7034 109.113 32.0841C108.705 31.9471 108.297 31.8102 107.889 31.6735C106.451 31.1917 105.014 30.7111 103.582 30.2345C103.572 30.231 103.562 30.2274 103.553 30.2239C101.709 29.6111 99.8991 29.0118 98.0686 28.4166C97.3965 28.1985 96.7506 27.9894 96.0937 27.78C95.4359 27.5703 94.79 27.3669 94.1374 27.1645C93.4841 26.9619 92.8338 26.7639 92.1926 26.5729C91.5443 26.3801 90.9116 26.1959 90.2716 26.0171C89.685 25.8526 89.1009 25.6971 88.463 25.5259C88.4047 25.5103 88.3465 25.4947 88.2883 25.4791C87.5902 25.2919 86.7985 25.0688 86.067 24.8412C84.1301 24.2357 82.2393 23.6596 80.3114 23.0864C78.3825 22.5129 76.4551 21.9532 74.5106 21.3934C73.7513 21.1747 72.9881 20.9565 72.225 20.7373C71.0377 20.3962 69.8462 20.0535 68.6517 19.7069C66.9059 19.2004 65.1584 18.6857 63.4043 18.1564L70.5916 17.3195C70.3769 17.4034 70.1619 17.4871 69.9467 17.5707C68.0284 18.3159 66.0905 19.051 64.1541 19.7678C62.2192 20.484 60.2607 21.1922 58.3221 21.8794C56.162 22.6446 54.0122 23.4009 51.8535 24.162C49.6981 24.9216 47.5417 25.6822 45.396 26.4416C43.2425 27.204 41.0956 27.9666 38.9493 28.7324C36.8018 29.4987 34.6571 30.2673 32.5126 31.04C31.229 31.5024 29.9464 31.9656 28.6638 32.4305C28.0189 32.7464 27.4006 33.0493 26.8053 33.3394C22.4053 35.4815 19.2077 36.9967 14.9237 38.8596C14.5168 39.0451 14.1914 39.2077 13.795 39.4047C13.7194 39.4422 13.639 39.4817 13.5572 39.5222C13.0388 39.7788 12.441 40.0682 11.5928 40.4365C9.90205 41.1738 7.25453 42.1876 3.69902 43.2187C2.80063 43.4787 2.08017 43.3349 2.08619 42.8891C2.0905 42.5758 2.44927 42.1918 2.96899 41.8933C1.92892 42.2788 0.89151 42.663 -0.142184 43.0484C-0.554844 43.2021 -0.973835 43.2808 -1.30553 43.2661C-1.61302 43.2524 -1.82215 43.1599 -1.89712 43.0041C-1.89713 43.0041 -1.89713 43.0041 -1.89714 43.0041C-1.90301 42.9919 -1.90806 42.9793 -1.91228 42.9663C-1.97022 42.7877 -1.86406 42.5494 -1.61901 42.2995C-1.37394 42.0499 -1.01036 41.8099 -0.606871 41.6325C0.463724 41.1624 1.53095 40.6943 2.59739 40.2241C3.66474 39.7536 4.72602 39.2831 5.78966 38.8096C6.853 38.3363 7.91502 37.8611 8.97966 37.3829C10.0401 36.9065 11.1021 36.428 12.1652 35.947C13.2351 35.463 14.2839 34.9861 15.3495 34.501C15.988 34.2102 16.6341 33.916 17.268 33.6263C17.5043 33.5185 17.7346 33.4126 17.9652 33.3071C18.1537 33.2209 18.3432 33.1345 18.5383 33.0454C20.5895 32.1063 22.6589 31.1553 24.7081 30.2094C26.7672 29.2593 28.8229 28.3076 30.8771 27.353C32.9325 26.3979 34.9846 25.4404 37.0365 24.4803C39.0874 23.5206 41.1358 22.5588 43.1866 21.592C45.2297 20.6286 47.2799 19.6588 49.3228 18.6863C50.9031 17.9341 52.4681 17.1846 54.0339 16.4303C54.6275 16.0856 55.2157 15.7465 55.7967 15.4123C57.4877 14.4398 59.1523 13.4063 60.7867 12.3771C57.7385 13.9199 55.3262 15.2348 53.0251 16.4773C52.7166 16.6439 52.4102 16.8095 52.1044 16.9739C48.9833 18.6535 45.9456 20.2292 41.7357 22.0906C29.7646 27.3895 22.8273 30.4701 18.472 32.3222C14.1184 34.1756 12.198 34.8687 10.3362 35.3709C7.70417 36.078 2.93008 38.0784 0.580418 39.1862C-0.274006 39.5868 -1.10856 39.6091 -1.28338 39.236C-1.458 38.8626 -0.914288 38.2193 -0.0688915 37.7996C2.3894 36.5826 7.49957 34.3019 10.6094 33.4125C11.994 33.0154 13.5349 32.452 17.7832 30.5456C22.0326 28.6404 28.8421 25.4556 40.725 19.9156C44.7458 18.043 47.6421 16.4706 50.7007 14.748C51.0007 14.5792 51.3023 14.4081 51.6068 14.236C51.6087 14.2351 51.6107 14.2341 51.6126 14.2332C54.4202 12.6468 57.4689 10.902 61.67 8.73604C62.9043 8.09991 64.1914 7.43271 65.5038 6.74842L65.6542 6.66102L65.9272 6.69913C75.8848 8.56722 87.2772 10.4892 90.3121 10.8155C90.9945 10.8902 91.6565 10.9515 92.3548 11.0159C95.0354 11.2624 98.2739 11.5493 105.453 12.7353C107.024 12.9947 108.856 13.3301 110.851 13.7166C113.95 13.8159 116.961 13.9073 119.551 14.1095C121.787 14.2848 123.902 14.2066 125.967 14.0547C126.562 14.011 127.162 13.96 127.761 13.9082C129.207 13.7833 130.654 13.6506 132.049 13.5928C133.161 13.5468 134.335 13.4582 135.576 13.3591C140.096 13.0053 145.537 12.4686 152.237 13.5471C159.337 14.6986 165.352 15.9713 170.528 17.1244C166.752 16.1629 163.864 15.3015 161.46 14.5718C161.007 14.4341 160.572 14.3017 160.154 14.1745C157.2 13.2759 155.049 12.6378 152.674 12.2713C141.331 10.5199 136.998 10.2166 131.987 10.4332C130.667 10.4897 129.199 10.608 127.62 10.7258C124.464 10.9631 120.862 11.1919 117.092 10.9893C113.579 10.8027 109.623 10.7232 105.441 10.5901C105.439 10.5898 105.438 10.5895 105.436 10.5892C104.619 10.5633 103.792 10.5353 102.959 10.5047C97.8803 10.3195 92.5617 10.0173 87.4481 9.43286C86.9012 9.37054 86.2442 9.30399 85.4901 9.22677C81.3944 8.81873 74.4112 8.01696 66.091 5.95509L65.4992 5.8725L65.1734 6.06193C64.6785 6.28533 64.1765 6.50838 63.6675 6.73081C61.7907 7.55074 59.7979 8.31447 57.5296 9.19769C56.8386 9.46666 56.1213 9.74616 55.3745 10.0423C52.15 11.3198 48.2635 12.937 43.196 15.3135C39.0137 17.2743 33.9679 19.7708 28.7313 22.3689C26.1519 23.6489 23.5263 24.9536 20.9365 26.2351C13.1134 30.1053 5.92556 33.616 -1.22904 37.1606C-1.23049 37.1614 -1.23194 37.1621 -1.23338 37.1629C-2.07928 37.5803 -2.88534 37.6091 -3.03299 37.2259C-3.18023 36.8428 -2.62223 36.1771 -1.78594 35.7408C5.30569 32.0545 12.4047 28.4156 20.1282 24.4056C22.6546 23.0936 25.235 21.7479 27.78 20.4225C32.9924 17.7084 38.0599 15.0765 42.2418 13.0155C47.3473 10.4985 51.2691 8.77731 54.5087 7.42138C55.2889 7.09465 56.0241 6.7911 56.7225 6.50374C58.9459 5.58888 60.7995 4.83931 62.5633 4.02741C63.013 3.82038 63.4569 3.61298 63.8949 3.40543L64.8998 2.82116L66.725 3.0759C74.8657 4.93369 81.6696 5.58559 85.8179 5.92162C86.5959 5.98664 87.2798 6.04341 87.8607 6.09837C92.8948 6.57639 98.153 6.77895 103.248 6.8715C104.074 6.88678 104.897 6.9001 105.714 6.91107C105.716 6.91076 105.718 6.91045 105.719 6.91013C109.917 6.96721 113.961 6.97588 117.553 7.09947C121.199 7.22663 124.462 6.96031 127.521 6.67815C129.163 6.5273 130.746 6.37458 132.296 6.28116C137.633 5.95709 142.22 6.21025 153.649 7.74837ZM4.57689 41.2968C6.7577 40.5937 8.4877 39.9234 9.75381 39.378C8.65222 39.7865 7.55305 40.1935 6.45325 40.6013C5.82729 40.8334 5.20203 41.0652 4.57689 41.2968ZM110.298 17.5205C109.926 17.5017 109.551 17.4827 109.174 17.4634C110.182 17.6578 111.191 17.8538 112.197 18.049C113.433 18.2886 114.669 18.5294 115.903 18.7699C113.954 18.3233 112.063 17.8997 110.298 17.5205ZM151.258 18.0693C144.967 16.9288 139.989 17.3328 135.52 17.6075C134.233 17.6882 132.986 17.7602 131.762 17.7894C131.254 17.8015 130.744 17.8245 130.229 17.8531C133.051 18.493 135.642 19.0925 137.763 19.5859C144.092 21.0571 147.63 22.1799 150.737 23.1807C151.636 23.4702 152.5 23.749 153.383 24.023C154.164 24.0253 154.973 24.0334 155.787 24.0606C156.927 24.0969 158.154 24.1564 159.318 24.2297C160.487 24.3029 161.671 24.3943 162.83 24.5026C163.998 24.6117 165.152 24.7374 166.298 24.8748C167.376 25.0037 168.449 25.144 169.486 25.2788C169.545 25.2866 169.605 25.2944 169.664 25.3021C169.888 25.3311 170.111 25.3599 170.331 25.3882L168.716 25.3084C169.566 25.1295 170.39 24.9517 171.157 24.7629C172.137 24.5205 172.948 24.2815 173.658 23.9903C174.545 23.6273 175.456 23.2678 176.359 22.9236C177.263 22.5789 178.164 22.2473 179.063 21.927C179.965 21.606 180.859 21.2967 181.756 20.9948C182.046 20.8972 182.349 20.7959 182.637 20.7006C182.77 20.6567 182.902 20.6121 183.035 20.5686C181.239 20.8159 179.374 21.0635 177.444 21.3065C174.657 21.6574 171.669 21.9318 168.374 22.2441C168.367 22.2448 168.36 22.2455 168.353 22.2462L170.995 22.3766C165.517 21.0317 159.158 19.5087 151.258 18.0693ZM210.158 16.0287C209.381 16.1605 208.244 16.3765 206.779 16.6541C206.432 16.7197 206.067 16.7907 205.684 16.8629C205.693 16.8629 205.703 16.8615 205.712 16.8616C206.683 16.865 207.579 16.862 208.543 16.8403C210.263 16.8005 211.931 16.7414 213.613 16.6562C215.301 16.5703 216.982 16.4592 218.661 16.3224C220.343 16.1853 222.027 16.0199 223.692 15.827C225.373 15.6315 227.028 15.4125 228.693 15.151C229.224 15.0678 229.755 14.9801 230.286 14.8885C229.078 14.9037 227.828 14.9543 226.508 15.0098C225.453 15.0541 224.354 15.1009 223.195 15.1359C222.752 15.1492 222.214 15.1494 221.586 15.1501C219.097 15.1506 215.193 15.173 210.158 16.0287ZM243.382 11.2015C243.764 11.1012 244.144 11.0051 244.52 10.9164C245.592 10.6639 246.64 10.4536 247.67 10.2582C248.392 10.1212 249.108 9.99325 249.813 9.86531C250.11 9.81132 250.407 9.75645 250.702 9.70253C251.195 9.61226 251.683 9.51936 252.169 9.42647C248.725 9.74104 245.365 10.0972 241.875 10.5787C241.829 10.5851 241.783 10.5932 241.737 10.5997C242.298 10.803 242.846 11.0039 243.382 11.2015Z" fill="#E7EBF1"/>
</svg>
