<svg width="69" height="67" viewBox="0 0 69 67" fill="none" xmlns="http://www.w3.org/2000/svg">
<path d="M33.9834 9.26953C34.954 9.24677 35.9614 9.47585 36.7871 9.99707L36.9502 10.1055L43.1289 14.4346L43.3564 14.6074C43.8766 15.0339 44.3159 15.6206 44.6357 16.2334C45.0012 16.9337 45.25 17.743 45.25 18.5V25.7803C45.2498 28.5031 43.0253 30.7402 40.29 30.7402H28.71C25.9737 30.7402 23.7503 28.5021 23.75 25.7705V18.3604C23.75 17.6501 23.9741 16.8809 24.3037 16.209C24.6335 15.5368 25.1055 14.8867 25.6689 14.4482L31.0596 10.248C31.8842 9.60668 32.9481 9.29386 33.9834 9.26953ZM34.0186 10.7686C33.2416 10.7868 32.5057 11.0241 31.9805 11.4326L26.5908 15.6318C26.2546 15.8934 25.9104 16.3391 25.6504 16.8691C25.3903 17.3994 25.25 17.9409 25.25 18.3604V25.7705C25.2503 27.6783 26.8067 29.2402 28.71 29.2402H40.29C42.1945 29.2402 43.7498 27.677 43.75 25.7803V18.5C43.75 18.0473 43.5934 17.4762 43.3066 16.9268C43.0198 16.3773 42.6415 15.923 42.2715 15.665L42.2695 15.6641L36.0898 11.334C35.5439 10.952 34.7955 10.7503 34.0186 10.7686ZM34.5 22.2402C34.9142 22.2402 35.25 22.576 35.25 22.9902V25.9902C35.2498 26.4043 34.9141 26.7402 34.5 26.7402C34.0859 26.7402 33.7502 26.4043 33.75 25.9902V22.9902C33.75 22.576 34.0858 22.2402 34.5 22.2402Z" fill="#939AA2"/>
<path d="M25.4794 53V46.4H26.7394V53H25.4794ZM21.1394 53V46.4H22.3994V53H21.1394ZM21.8494 50.17V49.13H25.9794V50.17H21.8494ZM30.5476 53.13C30.0342 53.13 29.5809 53.0267 29.1876 52.82C28.7942 52.6067 28.4842 52.2967 28.2576 51.89C28.0376 51.4767 27.9276 50.97 27.9276 50.37C27.9276 49.7567 28.0409 49.25 28.2676 48.85C28.5009 48.4433 28.8142 48.14 29.2076 47.94C29.6009 47.74 30.0442 47.64 30.5376 47.64C31.0509 47.64 31.5042 47.7433 31.8976 47.95C32.2909 48.1567 32.6009 48.4667 32.8276 48.88C33.0542 49.2867 33.1676 49.7933 33.1676 50.4C33.1676 51.0133 33.0542 51.5233 32.8276 51.93C32.6009 52.3367 32.2876 52.64 31.8876 52.84C31.4942 53.0333 31.0476 53.13 30.5476 53.13ZM30.5976 52.17C30.8776 52.17 31.1142 52.1067 31.3076 51.98C31.5009 51.8467 31.6476 51.65 31.7476 51.39C31.8542 51.13 31.9076 50.82 31.9076 50.46C31.9076 50.08 31.8509 49.7567 31.7376 49.49C31.6309 49.2167 31.4742 49.0067 31.2676 48.86C31.0676 48.7133 30.8142 48.64 30.5076 48.64C30.2409 48.64 30.0076 48.7067 29.8076 48.84C29.6076 48.9667 29.4542 49.1567 29.3476 49.41C29.2476 49.6633 29.1976 49.9767 29.1976 50.35C29.1976 50.9367 29.3209 51.3867 29.5676 51.7C29.8209 52.0133 30.1642 52.17 30.5976 52.17ZM34.3018 53V49.69V47.77H35.3318L35.3018 49.37H35.4818C35.5751 48.9833 35.6951 48.6633 35.8418 48.41C35.9951 48.15 36.1818 47.9567 36.4018 47.83C36.6218 47.7033 36.8751 47.64 37.1618 47.64C37.4818 47.64 37.7451 47.7133 37.9518 47.86C38.1585 48.0067 38.3151 48.21 38.4218 48.47C38.5351 48.7233 38.6051 49.02 38.6318 49.36H38.7918C38.8785 48.9733 39.0018 48.6533 39.1618 48.4C39.3285 48.1467 39.5285 47.9567 39.7618 47.83C40.0018 47.7033 40.2651 47.64 40.5518 47.64C40.8318 47.64 41.0785 47.6967 41.2918 47.81C41.5051 47.9233 41.6818 48.09 41.8218 48.31C41.9685 48.5233 42.0751 48.7933 42.1418 49.12C42.2151 49.4467 42.2518 49.8233 42.2518 50.25V53H40.9818V50.41C40.9818 50.0367 40.9485 49.7267 40.8818 49.48C40.8218 49.2333 40.7251 49.05 40.5918 48.93C40.4651 48.8033 40.2985 48.74 40.0918 48.74C39.8585 48.74 39.6551 48.8167 39.4818 48.97C39.3085 49.1233 39.1718 49.34 39.0718 49.62C38.9718 49.8933 38.9118 50.2067 38.8918 50.56V53H37.6518V50.47C37.6518 50.0833 37.6185 49.7633 37.5518 49.51C37.4851 49.25 37.3851 49.0567 37.2518 48.93C37.1185 48.8033 36.9485 48.74 36.7418 48.74C36.5018 48.74 36.2951 48.82 36.1218 48.98C35.9551 49.14 35.8218 49.36 35.7218 49.64C35.6285 49.92 35.5751 50.2333 35.5618 50.58V53H34.3018ZM45.9489 53.13C45.5289 53.13 45.1522 53.07 44.8189 52.95C44.4922 52.83 44.2156 52.6567 43.9889 52.43C43.7622 52.1967 43.5889 51.9167 43.4689 51.59C43.3489 51.2633 43.2889 50.8933 43.2889 50.48C43.2889 50.0667 43.3456 49.6867 43.4589 49.34C43.5789 48.9933 43.7489 48.6933 43.9689 48.44C44.1889 48.1867 44.4556 47.99 44.7689 47.85C45.0889 47.71 45.4522 47.64 45.8589 47.64C46.2389 47.64 46.5789 47.7033 46.8789 47.83C47.1789 47.9567 47.4322 48.1467 47.6389 48.4C47.8456 48.6467 47.9989 48.9567 48.0989 49.33C48.1989 49.6967 48.2322 50.1233 48.1989 50.61L44.1089 50.64V49.91L47.4689 49.88L47.0289 50.29C47.0689 49.91 47.0389 49.6 46.9389 49.36C46.8389 49.1133 46.6956 48.9333 46.5089 48.82C46.3222 48.7 46.1089 48.64 45.8689 48.64C45.5956 48.64 45.3556 48.7133 45.1489 48.86C44.9422 49 44.7822 49.2067 44.6689 49.48C44.5622 49.7467 44.5089 50.0733 44.5089 50.46C44.5089 51.04 44.6356 51.4733 44.8889 51.76C45.1489 52.0467 45.5022 52.19 45.9489 52.19C46.1489 52.19 46.3156 52.1667 46.4489 52.12C46.5889 52.0667 46.7056 52 46.7989 51.92C46.8922 51.8333 46.9656 51.7367 47.0189 51.63C47.0789 51.5233 47.1256 51.41 47.1589 51.29L48.2589 51.54C48.2056 51.7867 48.1189 52.0067 47.9989 52.2C47.8789 52.3933 47.7222 52.56 47.5289 52.7C47.3422 52.84 47.1189 52.9467 46.8589 53.02C46.5989 53.0933 46.2956 53.13 45.9489 53.13Z" fill="#666C75"/>
</svg>
