<svg width="16" height="16" viewBox="0 0 16 16" fill="none" xmlns="http://www.w3.org/2000/svg">
<path d="M13.3333 1.3335H6.66659C6.31296 1.3335 5.97382 1.47397 5.72378 1.72402C5.47373 1.97407 5.33325 2.31321 5.33325 2.66683V4.00016H10.6666C11.0202 4.00016 11.3593 4.14064 11.6094 4.39069C11.8594 4.64074 11.9999 4.97987 11.9999 5.3335V10.6668H13.3333C13.6869 10.6668 14.026 10.5264 14.2761 10.2763C14.5261 10.0263 14.6666 9.68712 14.6666 9.3335V2.66683C14.6666 2.31321 14.5261 1.97407 14.2761 1.72402C14.026 1.47397 13.6869 1.3335 13.3333 1.3335Z" fill="#FE0405"/>
<path d="M2.66659 14.6668H9.33325C10.0686 14.6668 10.6666 14.0688 10.6666 13.3335V6.66683C10.6666 5.9315 10.0686 5.3335 9.33325 5.3335H2.66659C1.93125 5.3335 1.33325 5.9315 1.33325 6.66683V13.3335C1.33325 14.0688 1.93125 14.6668 2.66659 14.6668ZM3.99992 8.00016H7.99992V9.3335H3.99992V8.00016ZM3.99992 10.6668H7.99992V12.0002H3.99992V10.6668Z" fill="#FE0405"/>
</svg>
