<svg width="20" height="20" viewBox="0 0 20 20" fill="none" xmlns="http://www.w3.org/2000/svg">
<path d="M17.5 4.375H2.5C2.15833 4.375 1.875 4.09167 1.875 3.75C1.875 3.40833 2.15833 3.125 2.5 3.125H17.5C17.8417 3.125 18.125 3.40833 18.125 3.75C18.125 4.09167 17.8417 4.375 17.5 4.375Z" fill="#939AA2"/>
<path d="M13.9498 8.54175H6.0498C5.70814 8.54175 5.4248 8.25841 5.4248 7.91675C5.4248 7.57508 5.70814 7.29175 6.0498 7.29175H13.9415C14.2831 7.29175 14.5665 7.57508 14.5665 7.91675C14.5665 8.25841 14.2915 8.54175 13.9498 8.54175Z" fill="#939AA2"/>
<path d="M17.5 12.7083H2.5C2.15833 12.7083 1.875 12.4249 1.875 12.0833C1.875 11.7416 2.15833 11.4583 2.5 11.4583H17.5C17.8417 11.4583 18.125 11.7416 18.125 12.0833C18.125 12.4249 17.8417 12.7083 17.5 12.7083Z" fill="#939AA2"/>
<path d="M13.9498 16.875H6.0498C5.70814 16.875 5.4248 16.5917 5.4248 16.25C5.4248 15.9083 5.70814 15.625 6.0498 15.625H13.9415C14.2831 15.625 14.5665 15.9083 14.5665 16.25C14.5665 16.5917 14.2915 16.875 13.9498 16.875Z" fill="#939AA2"/>
</svg>
