<svg width="20" height="20" viewBox="0 0 20 20" fill="none" xmlns="http://www.w3.org/2000/svg">
<path d="M13.9983 14.7206C13.5343 14.7206 13.1207 14.6401 12.7577 14.4791C12.3947 14.3149 12.1075 14.0735 11.896 13.7546C11.6877 13.4327 11.5835 13.0318 11.5835 12.552C11.5835 12.148 11.6577 11.8086 11.806 11.534C11.9544 11.2594 12.1564 11.0384 12.4121 10.8711C12.6678 10.7038 12.9582 10.5776 13.2833 10.4923C13.6116 10.4071 13.9557 10.3471 14.3155 10.3124C14.7385 10.2682 15.0794 10.2272 15.3382 10.1893C15.5971 10.1483 15.7849 10.0883 15.9017 10.0094C16.0185 9.93047 16.0769 9.81367 16.0769 9.659V9.63059C16.0769 9.33072 15.9822 9.09871 15.7928 8.93457C15.6065 8.77043 15.3414 8.68836 14.9973 8.68836C14.6343 8.68836 14.3455 8.76885 14.1308 8.92984C13.9162 9.08766 13.7742 9.28653 13.7047 9.52643L11.8392 9.37491C11.9339 8.93299 12.1201 8.55105 12.3979 8.22908C12.6757 7.90395 13.0339 7.65458 13.4727 7.48097C13.9146 7.3042 14.426 7.21582 15.0068 7.21582C15.4108 7.21582 15.7975 7.26317 16.1668 7.35787C16.5393 7.45256 16.8692 7.59934 17.1564 7.79821C17.4468 7.99707 17.6757 8.25275 17.843 8.56525C18.0103 8.8746 18.0939 9.24549 18.0939 9.67794V14.5832H16.181V13.5747H16.1242C16.0074 13.802 15.8512 14.0024 15.6555 14.176C15.4598 14.3465 15.2246 14.4807 14.95 14.5785C14.6754 14.6732 14.3581 14.7206 13.9983 14.7206ZM14.5759 13.3285C14.8726 13.3285 15.1346 13.2701 15.3619 13.1533C15.5892 13.0334 15.7675 12.8724 15.8969 12.6704C16.0264 12.4683 16.0911 12.2395 16.0911 11.9838V11.212C16.0279 11.2531 15.9411 11.2909 15.8307 11.3257C15.7233 11.3572 15.6018 11.3872 15.4661 11.4156C15.3303 11.4409 15.1946 11.4646 15.0589 11.4867C14.9231 11.5056 14.8 11.523 14.6896 11.5387C14.4528 11.5735 14.2461 11.6287 14.0693 11.7045C13.8925 11.7802 13.7552 11.8828 13.6574 12.0122C13.5595 12.1385 13.5106 12.2963 13.5106 12.4857C13.5106 12.7603 13.61 12.9702 13.8089 13.1154C14.0109 13.2575 14.2666 13.3285 14.5759 13.3285Z" fill="#FE0405"/>
<path d="M3.65986 14.5834H1.46289L4.81043 4.88647H7.45247L10.7953 14.5834H8.59831L6.16933 7.10238H6.09357L3.65986 14.5834ZM3.52255 10.7719H8.71194V12.3723H3.52255V10.7719Z" fill="#FE0405"/>
</svg>
