<svg width="24" height="24" viewBox="0 0 24 24" fill="none" xmlns="http://www.w3.org/2000/svg">
<path d="M21.2173 12.0001C21.2173 17.0906 17.0906 21.2173 12.0001 21.2173C6.90962 21.2173 2.78296 17.0906 2.78296 12.0001C2.78296 6.90962 6.90962 2.78296 12.0001 2.78296C17.0906 2.78296 21.2173 6.90962 21.2173 12.0001Z" fill="#F8FD01"/>
<path d="M20.4675 11.9998C20.4673 7.32364 16.6759 3.53296 11.9998 3.53296C7.32376 3.53316 3.53316 7.32376 3.53296 11.9998C3.53296 16.6759 7.32364 20.4673 11.9998 20.4675C16.676 20.4675 20.4675 16.676 20.4675 11.9998ZM21.9675 11.9998C21.9675 17.5045 17.5045 21.9675 11.9998 21.9675C6.49521 21.9673 2.03296 17.5043 2.03296 11.9998C2.03316 6.49533 6.49533 2.03316 11.9998 2.03296C17.5043 2.03296 21.9673 6.49521 21.9675 11.9998Z" fill="#FE0405"/>
<path d="M6.55273 12C6.55273 15.0085 8.99154 17.4472 12 17.4473C15.0085 17.4473 17.4473 15.0085 17.4473 12H18.9473C18.9473 15.837 15.837 18.9473 12 18.9473C8.16312 18.9472 5.05273 15.8369 5.05273 12H6.55273Z" fill="#FE0405"/>
<path d="M11.2263 12.7122L9.72632 12.7122L9.72632 7.02759L11.2263 7.02759L11.2263 12.7122Z" fill="#FE0405"/>
<path d="M14.5437 12.6514L13.0437 12.6514L13.0437 6.9668L14.5437 6.9668L14.5437 12.6514Z" fill="#FE0405"/>
</svg>
