<svg width="24" height="24" viewBox="0 0 24 24" fill="none" xmlns="http://www.w3.org/2000/svg">
<path d="M11.5459 1.66602C17.0024 1.66602 21.4258 6.08939 21.4258 11.5459C21.4258 13.839 20.6418 15.9475 19.3311 17.624L21.958 20.1904C22.4513 20.6728 22.4606 21.4643 21.9785 21.958C21.4962 22.4515 20.7048 22.4605 20.2109 21.9785L17.5557 19.3848C15.8903 20.6634 13.8078 21.4258 11.5459 21.4258C6.08939 21.4258 1.66602 17.0024 1.66602 11.5459C1.66602 6.08939 6.08939 1.66602 11.5459 1.66602ZM11.5459 4.16602C7.4701 4.16602 4.16602 7.4701 4.16602 11.5459C4.16602 15.6217 7.4701 18.9258 11.5459 18.9258C15.6217 18.9258 18.9258 15.6217 18.9258 11.5459C18.9258 7.4701 15.6217 4.16602 11.5459 4.16602Z" fill="#939AA2"/>
</svg>
