<svg width="24" height="24" viewBox="0 0 24 24" fill="none" xmlns="http://www.w3.org/2000/svg">
<path d="M15 1.25C17.574 1.25 19.5708 1.76026 20.9053 3.09473C22.2397 4.4292 22.75 6.42603 22.75 9V15C22.75 17.574 22.2397 19.5708 20.9053 20.9053C19.5708 22.2397 17.574 22.75 15 22.75H9C6.42603 22.75 4.4292 22.2397 3.09473 20.9053C1.76026 19.5708 1.25 17.574 1.25 15V9C1.25 6.42603 1.76026 4.4292 3.09473 3.09473C4.4292 1.76026 6.42603 1.25 9 1.25H15ZM12 5.25C11.5858 5.25 11.25 5.58579 11.25 6V6.58984H10.6123C9.09649 6.58984 7.92188 7.86823 7.92188 9.37012C7.92192 10.0873 8.07865 10.6826 8.44531 11.1504C8.80503 11.6092 9.29215 11.8477 9.74121 12.0068L9.74609 12.0088L11.25 12.5303V15.9102H10.8916C10.11 15.91 9.42199 15.2404 9.42188 14.3301C9.42188 13.9159 9.08609 13.5801 8.67188 13.5801C8.25766 13.5801 7.92188 13.9159 7.92188 14.3301C7.922 15.9993 9.21364 17.41 10.8916 17.4102H11.25V18C11.25 18.4142 11.5858 18.75 12 18.75C12.4142 18.75 12.75 18.4142 12.75 18V17.4102H13.4023C14.9179 17.4099 16.0918 16.1316 16.0918 14.6299C16.0918 13.9126 15.9351 13.3174 15.5684 12.8496C15.2086 12.3907 14.7216 12.1523 14.2725 11.9932L14.2676 11.9912L12.75 11.4639V8.08984H13.1221L13.2676 8.09766C13.9872 8.17471 14.5918 8.81639 14.5918 9.66992C14.5918 10.0841 14.9276 10.4199 15.3418 10.4199C15.756 10.4199 16.0918 10.0841 16.0918 9.66992C16.0918 8.05276 14.8797 6.6782 13.2783 6.59375L13.1221 6.58984H12.75V6C12.75 5.58579 12.4142 5.25 12 5.25ZM13.7715 13.4062V13.4072C14.1122 13.528 14.285 13.6444 14.3877 13.7754C14.4835 13.8976 14.5918 14.1274 14.5918 14.6299C14.5918 15.3678 14.0263 15.9099 13.4023 15.9102H12.75V13.0508L13.7715 13.4062ZM11.25 10.9424L10.2412 10.5928H10.2422C9.90152 10.472 9.7287 10.3556 9.62598 10.2246C9.5302 10.1024 9.42191 9.8726 9.42188 9.37012C9.42188 8.632 9.98812 8.08984 10.6123 8.08984H11.25V10.9424Z" fill="#FE0405"/>
</svg>
