<svg width="72" height="67" viewBox="0 0 72 67" fill="none" xmlns="http://www.w3.org/2000/svg">
<path d="M39 9.25C41.574 9.25 43.5708 9.76026 44.9053 11.0947C46.2397 12.4292 46.75 14.426 46.75 17V23C46.75 24.9505 46.4586 26.5639 45.7402 27.8125C45.0041 29.0919 43.8647 29.9114 42.3447 30.3418C42.3383 30.3436 42.3316 30.3441 42.3252 30.3457C41.3608 30.6269 40.2532 30.75 39 30.75H33C31.7466 30.75 30.6384 30.627 29.6738 30.3457C29.6677 30.3441 29.6614 30.3435 29.6553 30.3418C28.1353 29.9114 26.9959 29.0919 26.2598 27.8125C25.5414 26.5639 25.25 24.9505 25.25 23V17C25.25 14.426 25.7603 12.4292 27.0947 11.0947C28.4292 9.76026 30.426 9.25 33 9.25H39ZM35.7354 25.7246C35.1686 25.7457 34.6317 25.8343 34.1338 25.9785C34.028 26.0092 33.9244 26.0435 33.8223 26.0791C33.7387 26.1082 33.6563 26.1387 33.5752 26.1709C33.4672 26.2138 33.3611 26.2584 33.2578 26.3066C32.7254 26.5555 32.2572 26.8744 31.8672 27.2412C31.7798 27.3234 31.6955 27.4072 31.6162 27.4941C31.2566 27.8883 30.9828 28.3288 30.8096 28.7939C30.7771 28.8811 30.7479 28.9689 30.7227 29.0576C31.3758 29.1854 32.1299 29.25 33 29.25H39C39.8695 29.25 40.6235 29.1852 41.2764 29.0576C40.9367 27.8635 39.9347 26.8033 38.5293 26.2129C38.3189 26.1246 38.0996 26.0466 37.8721 25.9805C37.3717 25.8349 36.8319 25.7456 36.2617 25.7246C36.1752 25.7214 36.0879 25.7197 36 25.7197C35.9111 25.7197 35.8229 25.7213 35.7354 25.7246ZM33 10.75C30.574 10.75 29.0708 11.2397 28.1553 12.1553C27.2397 13.0708 26.75 14.574 26.75 17V23C26.75 24.8294 27.029 26.1406 27.5605 27.0645C27.9538 27.7479 28.5093 28.2591 29.2861 28.6143C29.2942 28.5861 29.303 28.5582 29.3115 28.5303C29.3258 28.4834 29.3408 28.4369 29.3564 28.3906C29.3672 28.3589 29.3783 28.3274 29.3896 28.2959C29.4924 28.0108 29.6205 27.7367 29.7715 27.4746C29.7783 27.4628 29.7841 27.4503 29.791 27.4385C29.816 27.3959 29.8429 27.3544 29.8691 27.3125C29.8929 27.2745 29.9167 27.2366 29.9414 27.1992C29.9628 27.1667 29.9847 27.1346 30.0068 27.1025C30.0328 27.0649 30.059 27.0273 30.0859 26.9902C30.1127 26.9534 30.1402 26.9171 30.168 26.8809C30.1977 26.8421 30.228 26.8037 30.2588 26.7656C30.2799 26.7395 30.3007 26.7133 30.3223 26.6875C30.3584 26.6444 30.3952 26.6018 30.4326 26.5596C30.4613 26.5272 30.49 26.4947 30.5195 26.4629C30.5519 26.428 30.5849 26.3936 30.6182 26.3594C30.6438 26.333 30.6691 26.3062 30.6953 26.2803C30.742 26.234 30.7905 26.1895 30.8389 26.1445C30.8616 26.1234 30.8841 26.1019 30.9072 26.0811C31.0414 25.9599 31.1813 25.8433 31.3271 25.7324C31.3555 25.7109 31.3853 25.6911 31.4141 25.6699C31.4616 25.6349 31.5089 25.5993 31.5576 25.5654C31.5805 25.5495 31.6038 25.5342 31.627 25.5186C31.6821 25.4812 31.7375 25.4441 31.7939 25.4082C31.8272 25.387 31.8608 25.3664 31.8945 25.3457C31.9422 25.3165 31.9905 25.288 32.0391 25.2598C32.0667 25.2438 32.0942 25.2276 32.1221 25.2119C32.1778 25.1806 32.2342 25.1501 32.291 25.1201C32.3268 25.1012 32.3623 25.0818 32.3984 25.0635C32.4439 25.0404 32.49 25.0183 32.5361 24.9961C32.5754 24.9772 32.6146 24.9577 32.6543 24.9395C32.7247 24.9071 32.7964 24.877 32.8682 24.8467C32.8839 24.84 32.8993 24.8327 32.915 24.8262C33.096 24.751 33.281 24.682 33.4697 24.6201C33.4907 24.6132 33.5121 24.6073 33.5332 24.6006C33.6124 24.5754 33.6921 24.5512 33.7725 24.5283C33.7877 24.524 33.8031 24.5199 33.8184 24.5156C33.8915 24.4953 33.965 24.4753 34.0391 24.457C34.0867 24.4453 34.1347 24.4347 34.1826 24.4238C34.2326 24.4124 34.2827 24.4011 34.333 24.3906C34.3532 24.3864 34.3733 24.382 34.3936 24.3779L34.5576 24.3467C34.5985 24.3394 34.6396 24.3329 34.6807 24.3262C34.6985 24.3233 34.7165 24.3211 34.7344 24.3184C34.8096 24.3066 34.8851 24.2958 34.9609 24.2861C34.9935 24.282 35.026 24.2772 35.0586 24.2734C35.1522 24.2627 35.2463 24.2537 35.3408 24.2461C35.3438 24.2459 35.3467 24.2453 35.3496 24.2451C35.5645 24.2281 35.7815 24.2197 36 24.2197C36.2182 24.2197 36.4349 24.2282 36.6494 24.2451C36.6524 24.2453 36.6553 24.2459 36.6582 24.2461C36.7537 24.2537 36.8487 24.2635 36.9434 24.2744C36.9727 24.2778 37.002 24.2815 37.0312 24.2852C37.1094 24.295 37.1872 24.3063 37.2646 24.3184C37.2822 24.3211 37.2999 24.3233 37.3174 24.3262C37.3943 24.3387 37.4707 24.3526 37.5469 24.3672C37.5857 24.3746 37.6244 24.3826 37.6631 24.3906C37.7164 24.4017 37.7694 24.4137 37.8223 24.4258C37.8676 24.4361 37.913 24.4459 37.958 24.457C38.0055 24.4687 38.0525 24.4816 38.0996 24.4941C38.1505 24.5077 38.2015 24.5206 38.252 24.5352C38.3103 24.5519 38.3681 24.5699 38.4258 24.5879C38.4603 24.5987 38.495 24.6089 38.5293 24.6201C38.714 24.6807 38.895 24.7481 39.0723 24.8213C39.1106 24.8371 39.1486 24.8537 39.1865 24.8701C39.2387 24.8927 39.2904 24.9158 39.3418 24.9395C39.3861 24.9598 39.4299 24.9808 39.4736 25.002C39.5003 25.0148 39.5273 25.0269 39.5537 25.04L39.6514 25.0889C39.6771 25.1022 39.702 25.1173 39.7275 25.1309C39.7728 25.1549 39.8178 25.1792 39.8623 25.2041C39.897 25.2235 39.9316 25.2428 39.9658 25.2627C40.0096 25.2882 40.0527 25.3145 40.0957 25.3408C40.1363 25.3656 40.1768 25.3905 40.2168 25.416C40.257 25.4417 40.2964 25.4687 40.3359 25.4951C40.3778 25.5231 40.4199 25.5504 40.4609 25.5791C40.4762 25.5898 40.4907 25.6015 40.5059 25.6123C40.9087 25.8993 41.2721 26.2252 41.5879 26.585C41.6087 26.6087 41.63 26.6322 41.6504 26.6562C41.6897 26.7025 41.7279 26.7495 41.7656 26.7969C41.7806 26.8157 41.7958 26.8345 41.8105 26.8535C41.8522 26.9073 41.893 26.9615 41.9326 27.0166C41.9409 27.0282 41.9488 27.0401 41.957 27.0518C42.2942 27.5282 42.552 28.0519 42.7129 28.6143C43.4902 28.2591 44.0461 27.7481 44.4395 27.0645C44.971 26.1406 45.25 24.8294 45.25 23V17C45.25 14.574 44.7603 13.0708 43.8447 12.1553C42.9292 11.2397 41.426 10.75 39 10.75H33ZM36 14.25C38.3942 14.25 40.3301 16.1859 40.3301 18.5801C40.33 20.9715 38.3969 22.9199 36 22.9199C33.6031 22.9199 31.67 20.9715 31.6699 18.5801C31.6699 16.1859 33.6058 14.25 36 14.25ZM36 15.75C34.4342 15.75 33.1699 17.0143 33.1699 18.5801C33.17 20.1486 34.4369 21.4199 36 21.4199C37.5631 21.4199 38.83 20.1486 38.8301 18.5801C38.8301 17.0143 37.5658 15.75 36 15.75Z" fill="#939AA2"/>
<path d="M21.8239 51.08V50.07H23.3739C23.9072 50.07 24.3039 49.9667 24.5639 49.76C24.8305 49.5467 24.9639 49.1967 24.9639 48.71C24.9639 48.2767 24.8405 47.95 24.5939 47.73C24.3472 47.51 23.9672 47.4 23.4539 47.4H21.8239V46.4H23.4839C23.9105 46.4 24.2939 46.45 24.6339 46.55C24.9739 46.65 25.2639 46.7967 25.5039 46.99C25.7439 47.1833 25.9272 47.43 26.0539 47.73C26.1805 48.0233 26.2439 48.3633 26.2439 48.75C26.2439 49.2567 26.1272 49.6833 25.8939 50.03C25.6672 50.3767 25.3272 50.64 24.8739 50.82C24.4272 50.9933 23.8705 51.08 23.2039 51.08H21.8239ZM20.9939 53V46.4H22.2539V53H20.9939ZM27.2618 53V50.38V47.77H28.3218L28.3018 49.57H28.4818C28.5418 49.1433 28.6351 48.79 28.7618 48.51C28.8884 48.2233 29.0651 48.01 29.2918 47.87C29.5184 47.7233 29.7984 47.65 30.1318 47.65C30.1984 47.65 30.2684 47.6533 30.3418 47.66C30.4218 47.6667 30.5084 47.6833 30.6018 47.71L30.5518 49.04C30.4451 49 30.3351 48.9733 30.2218 48.96C30.1151 48.94 30.0151 48.93 29.9218 48.93C29.6618 48.93 29.4351 48.9967 29.2418 49.13C29.0551 49.2633 28.9018 49.4533 28.7818 49.7C28.6684 49.94 28.5818 50.2267 28.5218 50.56V53H27.2618ZM33.7614 53.13C33.2481 53.13 32.7948 53.0267 32.4014 52.82C32.0081 52.6067 31.6981 52.2967 31.4714 51.89C31.2514 51.4767 31.1414 50.97 31.1414 50.37C31.1414 49.7567 31.2548 49.25 31.4814 48.85C31.7148 48.4433 32.0281 48.14 32.4214 47.94C32.8148 47.74 33.2581 47.64 33.7514 47.64C34.2648 47.64 34.7181 47.7433 35.1114 47.95C35.5048 48.1567 35.8148 48.4667 36.0414 48.88C36.2681 49.2867 36.3814 49.7933 36.3814 50.4C36.3814 51.0133 36.2681 51.5233 36.0414 51.93C35.8148 52.3367 35.5014 52.64 35.1014 52.84C34.7081 53.0333 34.2614 53.13 33.7614 53.13ZM33.8114 52.17C34.0914 52.17 34.3281 52.1067 34.5214 51.98C34.7148 51.8467 34.8614 51.65 34.9614 51.39C35.0681 51.13 35.1214 50.82 35.1214 50.46C35.1214 50.08 35.0648 49.7567 34.9514 49.49C34.8448 49.2167 34.6881 49.0067 34.4814 48.86C34.2814 48.7133 34.0281 48.64 33.7214 48.64C33.4548 48.64 33.2214 48.7067 33.0214 48.84C32.8214 48.9667 32.6681 49.1567 32.5614 49.41C32.4614 49.6633 32.4114 49.9767 32.4114 50.35C32.4114 50.9367 32.5348 51.3867 32.7814 51.7C33.0348 52.0133 33.3781 52.17 33.8114 52.17ZM37.9059 53V49.54H37.0359V48.59L38.4059 48.66V48.48C38.1992 48.42 38.0259 48.3333 37.8859 48.22C37.7459 48.1 37.6426 47.96 37.5759 47.8C37.5159 47.64 37.4859 47.4667 37.4859 47.28C37.4859 46.9933 37.5559 46.7467 37.6959 46.54C37.8359 46.3333 38.0326 46.1733 38.2859 46.06C38.5392 45.94 38.8392 45.88 39.1859 45.88C39.4726 45.88 39.7326 45.9167 39.9659 45.99C40.2059 46.0633 40.3992 46.1533 40.5459 46.26L40.4459 47.42C40.2992 47.3 40.1292 47.2067 39.9359 47.14C39.7426 47.0667 39.5559 47.03 39.3759 47.03C39.1692 47.03 38.9992 47.09 38.8659 47.21C38.7326 47.3233 38.6659 47.51 38.6659 47.77C38.6659 47.9367 38.6959 48.0733 38.7559 48.18C38.8159 48.28 38.8926 48.36 38.9859 48.42C39.0859 48.4733 39.1826 48.5133 39.2759 48.54H40.4959V49.54H39.1359V53H37.9059ZM41.4024 53V47.77H42.6624V53H41.4024ZM42.0324 46.95C41.779 46.95 41.5824 46.8967 41.4424 46.79C41.309 46.6767 41.2424 46.5167 41.2424 46.31C41.2424 46.1033 41.309 45.9467 41.4424 45.84C41.5824 45.7267 41.779 45.67 42.0324 45.67C42.299 45.67 42.499 45.7233 42.6324 45.83C42.7657 45.9367 42.8324 46.0967 42.8324 46.31C42.8324 46.5167 42.7624 46.6767 42.6224 46.79C42.489 46.8967 42.2924 46.95 42.0324 46.95ZM44.0782 53V45.9H45.3182V53H44.0782ZM49.0944 53.13C48.6744 53.13 48.2977 53.07 47.9644 52.95C47.6377 52.83 47.3611 52.6567 47.1344 52.43C46.9077 52.1967 46.7344 51.9167 46.6144 51.59C46.4944 51.2633 46.4344 50.8933 46.4344 50.48C46.4344 50.0667 46.4911 49.6867 46.6044 49.34C46.7244 48.9933 46.8944 48.6933 47.1144 48.44C47.3344 48.1867 47.6011 47.99 47.9144 47.85C48.2344 47.71 48.5977 47.64 49.0044 47.64C49.3844 47.64 49.7244 47.7033 50.0244 47.83C50.3244 47.9567 50.5777 48.1467 50.7844 48.4C50.9911 48.6467 51.1444 48.9567 51.2444 49.33C51.3444 49.6967 51.3777 50.1233 51.3444 50.61L47.2544 50.64V49.91L50.6144 49.88L50.1744 50.29C50.2144 49.91 50.1844 49.6 50.0844 49.36C49.9844 49.1133 49.8411 48.9333 49.6544 48.82C49.4677 48.7 49.2544 48.64 49.0144 48.64C48.7411 48.64 48.5011 48.7133 48.2944 48.86C48.0877 49 47.9277 49.2067 47.8144 49.48C47.7077 49.7467 47.6544 50.0733 47.6544 50.46C47.6544 51.04 47.7811 51.4733 48.0344 51.76C48.2944 52.0467 48.6477 52.19 49.0944 52.19C49.2944 52.19 49.4611 52.1667 49.5944 52.12C49.7344 52.0667 49.8511 52 49.9444 51.92C50.0377 51.8333 50.1111 51.7367 50.1644 51.63C50.2244 51.5233 50.2711 51.41 50.3044 51.29L51.4044 51.54C51.3511 51.7867 51.2644 52.0067 51.1444 52.2C51.0244 52.3933 50.8677 52.56 50.6744 52.7C50.4877 52.84 50.2644 52.9467 50.0044 53.02C49.7444 53.0933 49.4411 53.13 49.0944 53.13Z" fill="#666C75"/>
</svg>
