<svg width="24" height="24" viewBox="0 0 24 24" fill="none" xmlns="http://www.w3.org/2000/svg">
<path d="M12.2384 8.64149C12.5231 8.64404 12.7595 8.41754 12.7595 8.13284V5.53425C12.7595 5.0888 13.298 4.86572 13.613 5.1807L17.4665 9.03415L20.8533 12.421C21.0612 12.6289 21.0457 12.9704 20.8199 13.1587L17.3995 16.0091L13.5796 19.1927C13.2539 19.4641 12.7595 19.2325 12.7595 18.8086V16.1049C12.7595 15.8433 12.5541 15.625 12.2929 15.6114C7.32235 15.3538 4.40606 17.1069 2.94641 18.4092C2.5688 18.7461 1.77476 18.4559 1.80438 17.9507C1.9422 15.6003 2.46896 13.2889 4.31048 11.4481C6.76609 8.99163 10.2287 8.62355 12.2384 8.64149Z" fill="#FE0405"/>
</svg>
