<svg width="32" height="32" viewBox="0 0 32 32" fill="none" xmlns="http://www.w3.org/2000/svg">
<path d="M21.5868 2.6665H10.4134C5.56008 2.6665 2.66675 5.55984 2.66675 10.4132V21.5732C2.66675 26.4398 5.56008 29.3332 10.4134 29.3332H21.5734C26.4268 29.3332 29.3201 26.4398 29.3201 21.5865V10.4132C29.3334 5.55984 26.4401 2.6665 21.5868 2.6665ZM11.3334 8.5065C12.7067 8.5065 13.8401 9.6265 13.8401 11.0132C13.8401 12.3998 12.7201 13.5198 11.3334 13.5198C9.94675 13.5198 8.82675 12.3732 8.82675 10.9998C8.82675 9.6265 9.96008 8.5065 11.3334 8.5065ZM16.0001 25.4398C12.4134 25.4398 9.49341 22.5198 9.49341 18.9332C9.49341 17.9998 10.2534 17.2265 11.1867 17.2265H20.7867C21.7201 17.2265 22.4801 17.9865 22.4801 18.9332C22.5068 22.5198 19.5867 25.4398 16.0001 25.4398ZM20.6667 13.4932C19.2934 13.4932 18.1601 12.3732 18.1601 10.9865C18.1601 9.59984 19.2801 8.47984 20.6667 8.47984C22.0534 8.47984 23.1734 9.59984 23.1734 10.9865C23.1734 12.3732 22.0401 13.4932 20.6667 13.4932Z" fill="#FE0405"/>
</svg>
