<svg width="24" height="24" viewBox="0 0 24 24" fill="none" xmlns="http://www.w3.org/2000/svg">
<path d="M9.01953 2.8396C10.3695 1.78963 12.6195 1.74053 14.0195 2.72046L20.2002 7.04956C21.1901 7.73951 21.9999 9.28979 22 10.4998V17.78C22 20.09 20.11 21.99 17.79 21.99H6.20996C3.89006 21.99 2.00014 20.0901 2 17.7703V10.3601C2 9.23011 2.72988 7.73979 3.62988 7.03979L9.01953 2.8396ZM12 14.24C11.5858 14.24 11.25 14.5758 11.25 14.99V17.99C11.25 18.4042 11.5858 18.74 12 18.74C12.4142 18.74 12.75 18.4042 12.75 17.99V14.99C12.75 14.5758 12.4142 14.24 12 14.24Z" fill="#FE0405"/>
</svg>
