<svg width="20" height="20" viewBox="0 0 20 20" fill="none" xmlns="http://www.w3.org/2000/svg">
<path d="M17.4751 13.4C17.2751 15.625 15.6667 17.0833 13.3334 17.0833H5.83342C3.53341 17.0833 1.66675 15.2167 1.66675 12.9167V7.08332C1.66675 4.81666 3.03341 3.23332 5.15841 2.96666C5.37508 2.93332 5.60008 2.91666 5.83342 2.91666H13.3334C13.5501 2.91666 13.7584 2.92499 13.9584 2.95832C15.9501 3.19166 17.3001 4.58332 17.4751 6.59999C17.5001 6.84166 17.3001 7.04166 17.0584 7.04166H15.7667C14.9667 7.04166 14.2251 7.34999 13.6917 7.89999C13.0584 8.51666 12.7417 9.38332 12.8167 10.25C12.9501 11.7667 14.2834 12.9583 15.8667 12.9583H17.0584C17.3001 12.9583 17.5001 13.1583 17.4751 13.4Z" fill="#939AA2"/>
<path d="M18.3334 9.14166V10.8583C18.3334 11.3167 17.9667 11.6917 17.5 11.7083H15.8667C14.9667 11.7083 14.1417 11.05 14.0667 10.15C14.0167 9.62499 14.2167 9.13332 14.5667 8.79166C14.875 8.47499 15.3 8.29166 15.7667 8.29166H17.5C17.9667 8.30832 18.3334 8.68332 18.3334 9.14166Z" fill="#939AA2"/>
</svg>
