<svg width="64" height="67" viewBox="0 0 64 67" fill="none" xmlns="http://www.w3.org/2000/svg">
<path d="M35 9.25C37.574 9.25 39.5708 9.76026 40.9053 11.0947C42.2397 12.4292 42.75 14.426 42.75 17V23C42.75 25.574 42.2397 27.5708 40.9053 28.9053C39.5708 30.2397 37.574 30.75 35 30.75H29C26.426 30.75 24.4292 30.2397 23.0947 28.9053C21.7603 27.5708 21.25 25.574 21.25 23V17C21.25 14.426 21.7603 12.4292 23.0947 11.0947C24.4292 9.76026 26.426 9.25 29 9.25H35ZM29 10.75C26.574 10.75 25.0708 11.2397 24.1553 12.1553C23.2397 13.0708 22.75 14.574 22.75 17V23C22.75 25.426 23.2397 26.9292 24.1553 27.8447C25.0708 28.7603 26.574 29.25 29 29.25H35C37.426 29.25 38.9292 28.7603 39.8447 27.8447C40.7603 26.9292 41.25 25.426 41.25 23V17C41.25 14.574 40.7603 13.0708 39.8447 12.1553C38.9292 11.2397 37.426 10.75 35 10.75H29ZM32 13.25C32.4142 13.25 32.75 13.5858 32.75 14V14.5898H33.1221C34.8001 14.59 36.0918 16.0006 36.0918 17.6699C36.0918 18.0841 35.756 18.4199 35.3418 18.4199C34.9276 18.4199 34.5918 18.0841 34.5918 17.6699C34.5918 16.7594 33.9038 16.09 33.1221 16.0898H32.75V19.4639L34.2676 19.9912L34.2725 19.9932C34.7216 20.1523 35.2086 20.3907 35.5684 20.8496C35.9351 21.3174 36.0918 21.9126 36.0918 22.6299C36.0918 24.1316 34.9179 25.4099 33.4023 25.4102H32.75V26C32.75 26.4142 32.4142 26.75 32 26.75C31.5858 26.75 31.25 26.4142 31.25 26V25.4102H30.8916C29.2136 25.41 27.922 23.9993 27.9219 22.3301C27.9219 21.9159 28.2577 21.5801 28.6719 21.5801C29.0861 21.5801 29.4219 21.9159 29.4219 22.3301C29.422 23.2404 30.11 23.91 30.8916 23.9102H31.25V20.5303L29.7461 20.0088L29.7412 20.0068C29.2922 19.8477 28.805 19.6092 28.4453 19.1504C28.0787 18.6826 27.9219 18.0873 27.9219 17.3701C27.9219 15.8682 29.0965 14.5898 30.6123 14.5898H31.25V14C31.25 13.5858 31.5858 13.25 32 13.25ZM32.75 23.9102H33.4023C34.0263 23.9099 34.5918 23.3678 34.5918 22.6299C34.5918 22.1274 34.4835 21.8976 34.3877 21.7754C34.285 21.6444 34.1122 21.528 33.7715 21.4072V21.4062L32.75 21.0508V23.9102ZM30.6123 16.0898C29.9881 16.0898 29.4219 16.632 29.4219 17.3701C29.4219 17.8726 29.5302 18.1024 29.626 18.2246C29.7287 18.3556 29.9015 18.472 30.2422 18.5928H30.2412L31.25 18.9424V16.0898H30.6123Z" fill="#939AA2"/>
<path d="M21.6521 53V46.4H22.9221V53H21.6521ZM22.4721 53V51.96H26.5821V53H22.4721ZM22.4721 50.13V49.17H26.0921V50.13H22.4721ZM22.4721 47.44V46.4H26.5621V47.44H22.4721ZM28.8761 53.13C28.5894 53.13 28.3327 53.0767 28.1061 52.97C27.8794 52.8567 27.6994 52.69 27.5661 52.47C27.4394 52.25 27.3761 51.9767 27.3761 51.65C27.3761 51.3767 27.4261 51.1433 27.5261 50.95C27.6327 50.7567 27.7894 50.6 27.9961 50.48C28.2027 50.3533 28.4594 50.25 28.7661 50.17C29.0727 50.0833 29.4327 50.01 29.8461 49.95C30.0727 49.9167 30.2561 49.8833 30.3961 49.85C30.5427 49.8167 30.6494 49.7667 30.7161 49.7C30.7827 49.6267 30.8161 49.52 30.8161 49.38C30.8161 49.1733 30.7427 48.9967 30.5961 48.85C30.4561 48.6967 30.2261 48.62 29.9061 48.62C29.7127 48.62 29.5261 48.6533 29.3461 48.72C29.1727 48.7867 29.0227 48.8933 28.8961 49.04C28.7694 49.18 28.6827 49.3667 28.6361 49.6L27.5061 49.25C27.5794 48.9833 27.6861 48.7533 27.8261 48.56C27.9661 48.36 28.1394 48.19 28.3461 48.05C28.5527 47.91 28.7894 47.8067 29.0561 47.74C29.3227 47.6733 29.6161 47.64 29.9361 47.64C30.4227 47.64 30.8227 47.72 31.1361 47.88C31.4494 48.0333 31.6827 48.2767 31.8361 48.61C31.9894 48.9367 32.0661 49.36 32.0661 49.88V50.86C32.0661 51.0867 32.0694 51.3233 32.0761 51.57C32.0894 51.81 32.1027 52.0533 32.1161 52.3C32.1361 52.54 32.1594 52.7733 32.1861 53H31.0561C31.0294 52.8133 31.0061 52.6133 30.9861 52.4C30.9661 52.1867 30.9494 51.97 30.9361 51.75H30.7761C30.6827 52.0033 30.5494 52.2367 30.3761 52.45C30.2027 52.6567 29.9894 52.8233 29.7361 52.95C29.4894 53.07 29.2027 53.13 28.8761 53.13ZM29.3761 52.2C29.5094 52.2 29.6427 52.1767 29.7761 52.13C29.9161 52.0833 30.0527 52.0133 30.1861 51.92C30.3194 51.8267 30.4427 51.7133 30.5561 51.58C30.6694 51.44 30.7661 51.2767 30.8461 51.09L30.8261 50.2L31.0661 50.24C30.9527 50.3333 30.8127 50.4067 30.6461 50.46C30.4794 50.5133 30.3027 50.5533 30.1161 50.58C29.9361 50.6067 29.7527 50.64 29.5661 50.68C29.3861 50.7133 29.2227 50.76 29.0761 50.82C28.9294 50.8733 28.8127 50.9533 28.7261 51.06C28.6394 51.16 28.5961 51.3 28.5961 51.48C28.5961 51.7067 28.6694 51.8833 28.8161 52.01C28.9627 52.1367 29.1494 52.2 29.3761 52.2ZM33.4278 53V50.38V47.77H34.4878L34.4678 49.57H34.6478C34.7078 49.1433 34.8011 48.79 34.9278 48.51C35.0544 48.2233 35.2311 48.01 35.4578 47.87C35.6844 47.7233 35.9644 47.65 36.2978 47.65C36.3644 47.65 36.4344 47.6533 36.5078 47.66C36.5878 47.6667 36.6744 47.6833 36.7678 47.71L36.7178 49.04C36.6111 49 36.5011 48.9733 36.3878 48.96C36.2811 48.94 36.1811 48.93 36.0878 48.93C35.8278 48.93 35.6011 48.9967 35.4078 49.13C35.2211 49.2633 35.0678 49.4533 34.9478 49.7C34.8344 49.94 34.7478 50.2267 34.6878 50.56V53H33.4278ZM37.6465 53V49.81V47.77H38.6965L38.6665 49.37H38.8465C38.9399 48.9767 39.0632 48.6533 39.2165 48.4C39.3765 48.1467 39.5799 47.9567 39.8265 47.83C40.0732 47.7033 40.3599 47.64 40.6865 47.64C41.2799 47.64 41.7299 47.85 42.0365 48.27C42.3499 48.69 42.5065 49.34 42.5065 50.22V53H41.2365V50.35C41.2365 49.7833 41.1499 49.37 40.9765 49.11C40.8099 48.8433 40.5599 48.71 40.2265 48.71C39.9465 48.71 39.7099 48.8 39.5165 48.98C39.3232 49.1533 39.1732 49.3867 39.0665 49.68C38.9665 49.9667 38.9132 50.2833 38.9065 50.63V53H37.6465Z" fill="#666C75"/>
</svg>
