<svg width="24" height="24" viewBox="0 0 24 24" fill="none" xmlns="http://www.w3.org/2000/svg">
<path d="M11.97 2C6.44997 2 1.96997 6.48 1.96997 12C1.96997 17.52 6.44997 22 11.97 22C17.49 22 21.97 17.52 21.97 12C21.97 6.48 17.5 2 11.97 2Z" fill="#4EDB00"/>
<path d="M20.97 12C20.97 7.03163 16.947 3 11.97 3C7.00226 3 2.96997 7.03228 2.96997 12C2.96997 16.9677 7.00226 21 11.97 21V22C6.44997 22 1.96997 17.52 1.96997 12C1.96997 6.48 6.44997 2 11.97 2C17.5 2 21.97 6.48 21.97 12C21.97 17.52 17.49 22 11.97 22V21C16.9377 21 20.97 16.9677 20.97 12Z" fill="#379A00"/>
<path d="M12 16.5802L15.72 12.3502C16.23 11.7702 16.02 11.3002 15.25 11.3002H13.55V7.34019C13.55 6.41019 13.05 6.23019 12.44 6.92019L8.27997 11.6502C7.76997 12.2302 7.97997 12.7002 8.74997 12.7002H10.45V16.6602C10.45 17.5902 10.95 17.7702 11.56 17.0802L12 16.5802Z" fill="#379A00"/>
</svg>
