<svg width="32" height="32" viewBox="0 0 32 32" fill="none" xmlns="http://www.w3.org/2000/svg">
<path d="M15.9999 2.33154C23.5489 2.33154 29.6685 8.45119 29.6685 16.0002C29.6685 23.5491 23.5489 29.6688 15.9999 29.6688C8.45095 29.6688 2.3313 23.5491 2.3313 16.0002C2.3313 8.45119 8.45095 2.33154 15.9999 2.33154ZM16.2229 8.12175C16.1892 7.89853 15.8642 7.90267 15.8377 8.1258C15.393 12.1505 12.2317 15.3408 8.21071 15.8177L8.02014 15.838C7.79261 15.8649 7.7828 16.1918 8.00797 16.2313L8.62835 16.3367C12.4518 16.993 15.3872 20.0904 15.8377 23.9435C15.8639 24.1678 16.1873 24.1624 16.2229 23.9394C16.839 20.0842 19.8365 16.9834 23.6796 16.2962L24.0405 16.2313C24.2658 16.1907 24.2557 15.8661 24.0284 15.838C20.0275 15.3432 16.8463 12.2455 16.2432 8.25961L16.2229 8.12175Z" fill="#FE0405"/>
</svg>
