<svg width="16" height="16" viewBox="0 0 16 16" fill="none" xmlns="http://www.w3.org/2000/svg">
<path d="M8.00016 1.33337C4.32683 1.33337 1.3335 4.32671 1.3335 8.00004C1.3335 11.6734 4.32683 14.6667 8.00016 14.6667C11.6735 14.6667 14.6668 11.6734 14.6668 8.00004C14.6668 4.32671 11.6735 1.33337 8.00016 1.33337ZM10.9002 10.38C10.8068 10.54 10.6402 10.6267 10.4668 10.6267C10.3802 10.6267 10.2935 10.6067 10.2135 10.5534L8.14683 9.32004C7.6335 9.01337 7.2535 8.34004 7.2535 7.74671V5.01337C7.2535 4.74004 7.48016 4.51337 7.7535 4.51337C8.02683 4.51337 8.2535 4.74004 8.2535 5.01337V7.74671C8.2535 7.98671 8.4535 8.34004 8.66016 8.46004L10.7268 9.69337C10.9668 9.83337 11.0468 10.14 10.9002 10.38Z" fill="#939AA2"/>
</svg>
