<svg width="20" height="20" viewBox="0 0 20 20" fill="none" xmlns="http://www.w3.org/2000/svg">
<path d="M18.3331 13.7501V16.2501C18.3331 17.4001 17.3998 18.3334 16.2498 18.3334H10.2998C9.55811 18.3334 9.19144 17.4417 9.70811 16.9167L14.5998 11.9167C14.7581 11.7584 14.9748 11.6667 15.1914 11.6667H16.2498C17.3998 11.6667 18.3331 12.6001 18.3331 13.7501Z" fill="#939AA2"/>
<path d="M15.3085 9.40827L13.0502 11.6666L11.0002 13.7083C10.4752 14.2333 9.5752 13.8666 9.5752 13.1249C9.5752 10.4499 9.5752 6.04994 9.5752 6.04994C9.5752 5.82494 9.66686 5.6166 9.81686 5.45827L10.5835 4.6916C11.4002 3.87493 12.7169 3.87493 13.5335 4.6916L15.3002 6.45827C16.1252 7.27493 16.1252 8.5916 15.3085 9.40827Z" fill="#939AA2"/>
<path d="M6.24984 1.66675H3.74984C2.49984 1.66675 1.6665 2.50008 1.6665 3.75008V15.0001C1.6665 15.2251 1.6915 15.4501 1.73317 15.6667C1.75817 15.7751 1.78317 15.8834 1.8165 15.9917C1.85817 16.1167 1.89984 16.2417 1.94984 16.3584C1.95817 16.3667 1.95817 16.3751 1.95817 16.3751C1.9665 16.3751 1.9665 16.3751 1.95817 16.3834C2.07484 16.6167 2.20817 16.8417 2.3665 17.0501C2.45817 17.1584 2.54984 17.2584 2.6415 17.3584C2.73317 17.4584 2.83317 17.5417 2.9415 17.6251L2.94984 17.6334C3.15817 17.7917 3.38317 17.9251 3.6165 18.0417C3.62484 18.0334 3.62484 18.0334 3.62484 18.0417C3.74984 18.1001 3.87484 18.1417 4.00817 18.1834C4.1165 18.2167 4.22484 18.2417 4.33317 18.2667C4.54984 18.3084 4.77484 18.3334 4.99984 18.3334C5.3415 18.3334 5.6915 18.2834 6.0165 18.1751C6.10817 18.1417 6.19984 18.1084 6.2915 18.0667C6.58317 17.9501 6.8665 17.7834 7.1165 17.5667C7.1915 17.5084 7.27484 17.4334 7.34984 17.3584L7.38317 17.3251C7.9665 16.7251 8.33317 15.9001 8.33317 15.0001V3.75008C8.33317 2.50008 7.49984 1.66675 6.24984 1.66675ZM4.99984 16.2501C4.30817 16.2501 3.74984 15.6917 3.74984 15.0001C3.74984 14.3084 4.30817 13.7501 4.99984 13.7501C5.6915 13.7501 6.24984 14.3084 6.24984 15.0001C6.24984 15.6917 5.6915 16.2501 4.99984 16.2501Z" fill="#939AA2"/>
</svg>
