<svg width="24" height="24" viewBox="0 0 24 24" fill="none" xmlns="http://www.w3.org/2000/svg">
<path d="M11.4834 1.26929C12.4539 1.24653 13.4614 1.47564 14.2871 1.99683L14.4502 2.10522L20.6289 6.43433L20.8564 6.60718C21.3766 7.03362 21.8158 7.62036 22.1357 8.23315C22.5013 8.93343 22.7499 9.74266 22.75 10.4998V17.78C22.7499 20.503 20.5254 22.74 17.79 22.74H6.20996C3.47357 22.74 1.25019 20.502 1.25 17.7703V10.3601C1.25003 9.64986 1.4741 8.8807 1.80371 8.20874C2.13355 7.53652 2.60543 6.88643 3.16895 6.448L8.55957 2.2478C9.38421 1.60647 10.4481 1.29361 11.4834 1.26929ZM11.5186 2.76831C10.7416 2.78658 10.0057 3.02391 9.48047 3.43237L4.09082 7.63159C3.75457 7.89312 3.41046 8.33886 3.15039 8.8689C2.89021 9.3992 2.75003 9.94061 2.75 10.3601V17.7703C2.75019 19.6782 4.30662 21.24 6.20996 21.24H17.79C19.6946 21.24 21.2499 19.6769 21.25 17.78V10.4998C21.2499 10.047 21.0935 9.47601 20.8066 8.92651C20.5197 8.37702 20.1415 7.92271 19.7715 7.66479L19.7695 7.66382L13.5898 3.33374C13.0439 2.95175 12.2954 2.75009 11.5186 2.76831ZM12 14.24C12.4142 14.24 12.75 14.5758 12.75 14.99V17.99C12.75 18.4042 12.4142 18.74 12 18.74C11.5858 18.74 11.25 18.4042 11.25 17.99V14.99C11.25 14.5758 11.5858 14.24 12 14.24Z" fill="#939AA2"/>
</svg>
